<svg xmlns="http://www.w3.org/2000/svg" viewBox="0 0 128.8 145.2" enable-background="new 0 0 128.8 145.2"><path d="m26.4 38c-2.3-4-6.7-6.7-11.7-6.7-7.5 0-13.5 6-13.5 13.5 0 7.5 6 13.5 13.5 13.5v-13.6l11.7-6.7"/><path d="m76 22.9c1.1-2 1.8-4.2 1.8-6.7 0-7.5-6-13.5-13.5-13.5-7.5 0-13.5 6-13.5 13.5 0 2.4.7 4.7 1.8 6.7l11.7-6.8 11.7 6.8"/><path d="m113.8 58.2c7.5 0 13.5-6 13.5-13.5 0-7.5-6-13.5-13.5-13.5-5 0-9.3 2.7-11.7 6.7l11.7 6.7v13.6"/><path d="m113.8 88.4v13.5l-11.7 6.7c2.3 4 6.7 6.8 11.7 6.8 7.5 0 13.5-6 13.5-13.5-.1-7.5-6.1-13.5-13.5-13.5"/><path d="m14.7 88.4c-7.4 0-13.5 6.1-13.5 13.5 0 7.5 6 13.5 13.5 13.5 5 0 9.3-2.7 11.7-6.7l-11.7-6.8v-13.5"/><path d="m52.6 123.7c-1.1 2-1.8 4.3-1.8 6.7 0 7.5 6 13.5 13.5 13.5 7.5 0 13.5-6 13.5-13.5 0-2.5-.7-4.8-1.8-6.7l-11.7 6.7-11.7-6.7"/><path d="m44.2 51.4l-1 1.7v48.9h1z"/><path d="m50.2 41l-1 1.8v59.2h1z"/><path d="m56.2 30.6l-1 1.8v69.6h1z"/><path d="m38.2 61.8l-1 1.7v38.5h1z"/><path d="m62.2 29.3c-1-.1-1-.1-1-.2v73h1v-72.8"/><path d="m32.2 72.2l-1 1.7v28.1h1z"/><path d="m26.2 82.6l-1 1.7v8.2c0 .4 1 .8 1 1.2v-11.1"/><path d="m92.2 63.5l-1-1.7v40.2h1z"/><path d="m98.2 73.9l-1-1.7v29.8h1z"/><path d="m104.2 84.3l-1-1.7v11.2c0-.4 0-.8 1-1.2v-8.3"/><path d="m86.2 53.1l-1-1.7v50.6h1z"/><path d="m74.2 32.4l-1-1.8v71.4h1z"/><path d="m80.2 42.7l-1-1.7v61h1z"/><path d="m68.2 29c0 .1-1 .2-1 .2v72.8h1v-73"/></svg>